#!OML:ASF H:\Pregnant\Project 1\Capture day 1\Session 1\femalepreg.ASF
:FULLY-SPECIFIED
:DEGREES
1180
root 6.08608 16.6796 17.1992 -163.154 193.812 -184.368
lowerback -8.38691 -1.31835 5.63768
upperback -5.72101 -2.19348 8.18794
thorax -1.1551 -1.1526 5.22898
lowerneck -22.9737 1.50904 6.004
upperneck 25.9349 1.08668 -4.08097
head 12.482 0.510024 -2.38862
rclavicle 3.47873e-015 1.74931e-014
rhumerus -31.1378 7.21366 -76.9214
rradius 31.8493
rwrist -6.05618
rhand -14.4311 -18.079
rfingers 7.12502
rthumb 11.7134 -47.7315
lclavicle 3.47873e-015 1.74931e-014
lhumerus -40.443 -5.93778 83.453
lradius 33.1975
lwrist 41.3652
lhand -22.2388 -3.42875
lfingers 7.12502
lthumb 4.17814 26.51
rfemur -35.2673 15.5717 26.3652
rtibia 56.3203
rfoot -26.9692 -13.1324
rtoes -13.7096
lfemur -57.6854 -4.28201 -6.73715
ltibia 37.9077
lfoot 21.3753 -2.61556
ltoes -27.9651
1181
root 6.07455 16.622 17.2536 -162.718 194.017 -184.969
lowerback -8.51151 -1.29738 5.71875
upperback -5.68653 -2.19242 8.3486
thorax -1.04828 -1.15238 5.35168
lowerneck -22.959 1.57009 6.21911
upperneck 25.6788 1.11744 -4.16728
head 12.3814 0.531041 -2.44727
rclavicle 1.59525e-014 -2.8625e-014
rhumerus -31.0915 8.08426 -77.1097
rradius 32.657
rwrist -6.14748
rhand -14.2811 -17.9077
rfingers 7.12502
rthumb 11.8581 -47.552
lclavicle 1.59525e-014 -2.8625e-014
lhumerus -40.3241 -6.05655 83.3037
lradius 33.5113
lwrist 41.5295
lhand -22.1877 -3.41634
lfingers 7.12502
lthumb 4.22756 26.5215
rfemur -35.5715 15.9011 26.9433
rtibia 56.7912
rfoot -27.2889 -13.2998
rtoes -13.8102
lfemur -57.668 -4.2938 -5.41468
ltibia 36.6474
lfoot 22.7006 -2.86837
ltoes -28.4402
1182
root 6.06397 16.5623 17.3083 -162.294 194.224 -185.597
lowerback -8.6406 -1.2697 5.82573
upperback -5.62511 -2.18802 8.50379
thorax -0.912044 -1.15086 5.45366
lowerneck -22.9528 1.63348 6.42992
upperneck 25.4101 1.147 -4.23551
head 12.2781 0.553162 -2.49808
rclavicle -2.61899e-014 7.95139e-014
rhumerus -31.0288 8.91574 -77.2677
rradius 33.4629
rwrist -6.15727
rhand -14.1098 -17.7178
rfingers 7.12502
rthumb 12.0232 -47.3524
lclavicle -2.61899e-014 7.95139e-014
lhumerus -40.172 -6.1934 83.1546
lradius 33.8135
lwrist 41.6819
lhand -22.1444 -3.36056
lfingers 7.12502
lthumb 4.26932 26.5764
rfemur -35.838 16.1911 27.5422
rtibia 57.2421
rfoot -27.6484 -13.3838
rtoes -13.8523
lfemur -57.5947 -4.30162 -4.08306
ltibia 35.4496
lfoot 23.9109 -3.06922
ltoes -29.0502
1183
root 6.05439 16.5014 17.3633 -161.888 194.43 -186.239
lowerback -8.76802 -1.23966 5.94669
upperback -5.53869 -2.1846 8.65449
thorax -0.751027 -1.14987 5.54257
lowerneck -22.9652 1.70012 6.61728
upperneck 25.1488 1.17953 -4.273
head 12.1818 0.578186 -2.53281
rclavicle -2.43511e-014 3.65764e-014
rhumerus -30.9425 9.6988 -77.387
rradius 34.2461
rwrist -6.08512
rhand -13.9273 -17.5101
rfingers 7.12502
rthumb 12.1992 -47.1344
lclavicle -2.43511e-014 3.65764e-014
lhumerus -39.9866 -6.3432 83.0125
lradius 34.0919
lwrist 41.8237
lhand -22.1336 -3.31381
lfingers 7.12502
lthumb 4.27975 26.6229
rfemur -36.0658 16.428 28.1518
rtibia 57.679
rfoot -28.0439 -13.3687
rtoes -13.8353
lfemur -57.4591 -4.30745 -2.76269
ltibia 34.3116
lfoot 24.9891 -3.25068
ltoes -29.7953
1184
root 6.04593 16.4399 17.4188 -161.51 194.636 -186.885
lowerback -8.87965 -1.2059 6.07378
upperback -5.43816 -2.17701 8.79325
thorax -0.58469 -1.14683 5.61597
lowerneck -22.9755 1.76677 6.78371
upperneck 24.897 1.21019 -4.27724
head 12.0889 0.60472 -2.5518
rclavicle -3.26007e-014 1.24042e-013
rhumerus -30.8507 10.4017 -77.462
rradius 34.9958
rwrist -5.91672
rhand -13.7162 -17.279
rfingers 7.12502
rthumb 12.4027 -46.8911
lclavicle -3.26007e-014 1.24042e-013
lhumerus -39.7887 -6.51798 82.8815
lradius 34.3472
lwrist 41.9505
lhand -22.1495 -3.26028
lfingers 7.12502
lthumb 4.26438 26.6768
rfemur -36.2522 16.6026 28.7619
rtibia 58.1103
rfoot -28.4682 -13.2588
rtoes -13.7879
lfemur -57.255 -4.32508 -1.46671
ltibia 33.2316
lfoot 25.9265 -3.42086
ltoes -30.6345
1185
root 6.03865 16.378 17.4749 -161.162 194.838 -187.52
lowerback -8.97819 -1.17338 6.19485
upperback -5.32173 -2.17138 8.92014
thorax -0.408753 -1.14447 5.68005
lowerneck -22.9878 1.83292 6.91831
upperneck 24.6532 1.23996 -4.24079
head 11.9996 0.633126 -2.55035
rclavicle 4.76089e-014 -1.90833e-014
rhumerus -30.7472 11.033 -77.4926
rradius 35.7073
rwrist -5.67402
rhand -13.5071 -17.0056
rfingers 7.12502
rthumb 12.6044 -46.6053
lclavicle 4.76089e-014 -1.90833e-014
lhumerus -39.5735 -6.71062 82.7626
lradius 34.5744
lwrist 42.0586
lhand -22.2034 -3.21778
lfingers 7.12502
lthumb 4.21237 26.7203
rfemur -36.4041 16.7099 29.3624
rtibia 58.5448
rfoot -28.9124 -13.062
rtoes -13.7219
lfemur -56.9878 -4.34181 -0.224418
ltibia 32.2084
lfoot 26.7297 -3.60647
ltoes -31.4921
